<?xml version="1.0" encoding="utf-8"?>
<!-- Generator: Adobe Illustrator 17.1.0, SVG Export Plug-In . SVG Version: 6.00 Build 0)  -->
<!DOCTYPE svg PUBLIC "-//W3C//DTD SVG 1.1//EN" "http://www.w3.org/Graphics/SVG/1.1/DTD/svg11.dtd">
<svg version="1.1" id="Layer_1" xmlns="http://www.w3.org/2000/svg" xmlns:xlink="http://www.w3.org/1999/xlink" x="0px" y="0px"
	 viewBox="0 0 221 221" enable-background="new 0 0 221 221" xml:space="preserve">
<g>
	<defs>
		<rect id="SVGID_1_" x="6.167" y="5.677" width="209.213" height="209.213"/>
	</defs>
	<clipPath id="SVGID_2_">
		<use xlink:href="#SVGID_1_"  overflow="visible"/>
	</clipPath>
	<path clip-path="url(#SVGID_2_)" d="M110.773,214.89c57.773,0,104.607-46.834,104.607-104.607
		c0-57.772-46.834-104.606-104.607-104.606S6.166,52.511,6.166,110.283C6.166,168.056,53,214.89,110.773,214.89"/>
	<path clip-path="url(#SVGID_2_)" fill="none" stroke="#FFFFFF" stroke-width="1.354" stroke-miterlimit="10" d="M134.439,155.493
		c1.199,0.187,2.857,0.146,4.34,0.24c0,0,39.279,3.265,39.279-27.184c0-20.165-16.38-25.64-26.932-27.074 M127.853,137.388
		c0,0,18.629,1.899,30.187-3.674c8.29-3.997,15.877-13.345,6.057-28.505c0,0,16.881,6.543,13.647,28.318
		c-0.003,0.035-12.505,16.484-41.76,8.466c-0.423-0.116-4.048-1.21-4.9-1.46c-1.807-0.529-3.639-1.397-5.124-2.08
		c-1.682-0.772-1.845-1.557-1.998-1.615L127.853,137.388z M51.484,66.201l19.718,34.872c-9.517,11.772-19.848,49.992-19.328,54.761
		h-0.423L51.484,66.201z M151.133,101.472c0,0-7.441-0.872-12.087-1.735v19.928c2.434,0.082,6.971,0.738,6.971,0.738
		 M139.046,77.858c0-7.166,5.809-12.975,12.975-12.975c7.165,0,12.974,5.809,12.974,12.975c0,7.165-5.809,12.974-12.974,12.974
		C144.855,90.832,139.046,85.023,139.046,77.858z M177.693,133.66c-4.2,26.32-43.254,22.174-43.254,22.174l-11.859-18.727
		c9.366,5.515,39.579,13.278,54.028-2.988C177.639,133.297,177.946,132.075,177.693,133.66z M51.502,66.201h21.457l53.641,89.633
		h-22.495L72.439,103.23L51.502,66.201z M142.313,119.918c0,0,16.02,0.946,16.02,9.144c0,11.177-32.865,8.03-32.865,8.03
		 M51.502,66.201h19.533v89.633H51.502V66.201z"/>
	<path clip-path="url(#SVGID_2_)" fill="none" stroke="#FFFFFF" stroke-width="1.354" stroke-miterlimit="10" d="M132.656,119.286
		V97.912c0,0-11.93-2.719-11.93-15.753c0-11.816,11.93-16.97,11.93-16.97s-26.384,1.225-26.384,26.158
		C106.272,105.658,115.972,118.022,132.656,119.286z"/>
	
		<circle clip-path="url(#SVGID_2_)" fill="none" stroke="#FFFFFF" stroke-width="1.093" stroke-miterlimit="10" cx="110.557" cy="110.283" r="97.404"/>
</g>
<rect x="121.16" y="131.802" transform="matrix(0.1387 -0.9903 0.9903 0.1387 -29.1013 237.0381)" width="1.125" height="6.894"/>
<rect x="46.357" y="61.98" width="30.602" height="3.543"/>
<rect x="42.764" y="63.397" width="8.048" height="95.71"/>
<rect x="120.118" y="133.607" transform="matrix(0.848 -0.5299 0.5299 0.848 -55.134 85.4174)" width="2.512" height="10.476"/>
</svg>
